<?xml version="1.0" standalone="no"?>
<!DOCTYPE svg PUBLIC "-//W3C//DTD SVG 20010904//EN"
 "http://www.w3.org/TR/2001/REC-SVG-20010904/DTD/svg10.dtd">
<svg version="1.0" xmlns="http://www.w3.org/2000/svg"
 width="225.000000pt" height="225.000000pt" viewBox="0 0 225.000000 225.000000"
 preserveAspectRatio="xMidYMid meet">
<metadata>
Created by potrace 1.14, written by Peter Selinger 2001-2017
</metadata>
<g transform="translate(0.000000,225.000000) scale(0.100000,-0.100000)"
fill="#000000" stroke="none">
<path d="M1336 2146 c-30 -55 -83 -158 -117 -228 l-64 -128 -42 0 c-196 -1
-391 -72 -530 -194 -55 -49 -55 -49 -100 -39 -154 36 -315 -41 -378 -179 -101
-220 49 -465 289 -474 l70 -3 53 -60 c60 -67 171 -146 256 -181 32 -13 57 -29
57 -36 0 -8 14 -29 32 -49 l31 -36 -216 3 c-213 3 -216 3 -241 27 -15 14 -30
39 -34 55 -5 17 -15 31 -23 31 -11 0 -15 -27 -17 -147 -1 -82 1 -148 5 -149
26 -3 570 -4 581 -1 8 3 12 29 12 83 0 63 3 77 14 73 8 -3 28 2 45 11 17 8 31
12 31 7 0 -13 -110 -275 -120 -285 -4 -5 -20 13 -36 40 l-29 48 -3 -159 c-1
-87 0 -161 2 -164 6 -5 229 186 235 201 2 5 -5 7 -15 4 -11 -3 -36 -8 -56 -12
l-37 -6 95 198 c52 109 97 200 100 202 9 9 65 4 89 -9 24 -13 25 -16 25 -127
l0 -113 300 0 300 0 16 -25 c9 -14 13 -33 10 -42 -15 -42 28 26 66 105 l39 83
-21 44 c-12 24 -41 62 -65 84 -25 23 -45 46 -45 51 0 6 -8 10 -17 10 -10 1
-49 11 -86 24 -72 25 -115 25 -176 0 -67 -28 -72 -8 -6 27 25 13 43 28 42 34
-2 5 21 37 51 70 63 68 117 173 133 260 34 183 -47 400 -200 535 -59 53 -178
120 -248 141 -24 7 -43 15 -43 19 0 4 58 97 129 206 70 110 127 200 126 202
-2 2 -51 18 -109 36 l-106 34 -54 -102z m-397 -775 c-118 -230 -178 -337 -187
-334 -7 3 -21 -4 -31 -16 -14 -16 -24 -19 -40 -13 l-21 7 23 35 c40 60 57 124
53 205 -3 40 -11 87 -20 103 -22 43 -20 57 16 121 75 132 218 228 341 230 l38
1 -172 -339z m446 269 c141 -97 226 -283 226 -495 0 -106 -17 -188 -52 -257
l-21 -41 -24 29 c-13 16 -23 33 -24 38 0 4 -11 17 -25 28 -13 10 -24 24 -22
30 1 7 -10 18 -25 25 -16 8 -28 18 -28 24 0 5 36 82 81 170 44 89 78 163 76
166 -3 2 -127 -39 -277 -92 -149 -54 -273 -95 -275 -93 -2 2 64 119 148 259
171 287 152 271 242 209z m-98 -553 l-32 -77 -90 6 c-49 3 -93 8 -97 10 -4 2
-9 1 -12 -4 -2 -4 18 -16 46 -26 l51 -18 -39 -23 c-36 -22 -40 -22 -88 -8 -28
8 -60 20 -71 26 -11 6 -37 9 -57 8 -21 -1 -38 1 -38 6 0 8 452 184 457 179 2
-1 -12 -37 -30 -79z m-542 -90 c-13 -21 -63 -53 -70 -45 -1 2 -6 13 -10 26 -6
22 -5 23 29 17 29 -6 36 -4 36 9 0 9 7 16 15 16 14 0 14 -3 0 -23z m485 -36
c0 -4 -10 -31 -21 -60 -25 -59 -45 -65 -84 -24 -14 15 -25 31 -25 35 0 4 17
19 37 33 36 24 93 34 93 16z m-516 -66 c-8 -19 -20 -12 -27 15 -4 17 -2 18 14
10 10 -6 16 -17 13 -25z m306 18 c33 -2 84 -22 77 -29 -3 -4 -30 0 -59 7 -29
7 -56 12 -60 11 -10 -3 -10 12 -1 21 4 4 9 4 12 0 3 -5 17 -9 31 -10z m340
-45 c0 -4 -11 -8 -25 -8 -23 0 -24 2 -13 26 11 24 13 25 25 8 7 -10 13 -21 13
-26z m69 10 c17 -17 29 -33 27 -36 -3 -2 -20 1 -39 7 -40 14 -70 61 -38 61 10
0 33 -14 50 -32z m-445 0 c14 -6 33 -22 41 -35 l16 -23 -40 6 c-30 5 -48 1
-80 -17 -23 -12 -41 -26 -41 -31 0 -4 -15 -8 -34 -8 -19 0 -38 -5 -41 -11 -10
-15 -55 29 -55 53 0 10 -5 27 -12 38 -18 28 1 39 22 13 22 -28 36 -29 50 -3 6
11 15 20 21 20 6 0 3 -7 -5 -16 -20 -19 -21 -53 -2 -60 21 -8 59 15 52 31 -7
20 8 27 61 27 44 0 49 11 8 21 -15 4 -16 5 -3 6 9 0 28 -4 42 -11z m400 -57
c4 -5 -1 -8 -11 -7 -9 2 -33 0 -54 -4 -29 -5 -36 -4 -32 7 6 15 88 19 97 4z
m-294 -12 c0 -5 4 -8 9 -5 14 9 63 -13 56 -25 -5 -7 -14 -4 -26 7 -11 9 -21
15 -24 12 -3 -3 4 -13 15 -23 11 -10 20 -25 20 -34 0 -10 -5 -7 -13 9 -7 13
-28 35 -46 47 -29 20 -31 23 -12 23 11 0 21 -5 21 -11z m389 -43 c-10 -9 -69
-36 -69 -32 0 7 52 35 64 36 5 0 7 -2 5 -4z m-454 -50 c-20 -30 -28 -32 -44
-12 -9 11 -5 17 21 29 40 19 44 16 23 -17z m71 -31 c-1 -5 -8 -10 -14 -9 -7 1
-21 2 -31 3 -18 1 -19 3 -4 32 l16 32 18 -24 c10 -13 17 -28 15 -34z m-119
-21 c3 -8 1 -20 -6 -27 -8 -8 -11 -7 -11 6 0 9 -5 17 -11 17 -5 0 -7 5 -4 10
9 15 25 12 32 -6z m791 -24 c55 -29 75 -47 67 -60 -13 -21 -73 -40 -128 -40
-53 0 -53 0 -51 30 1 20 -6 41 -22 60 -17 20 -21 30 -12 33 25 10 110 -4 146
-23z m-678 -3 c0 -6 -9 -23 -19 -36 l-19 -24 -12 22 c-6 12 -9 28 -7 35 6 16
57 19 57 3z m361 -14 c-21 -39 -38 -56 -50 -49 -8 5 -5 16 9 37 24 32 58 42
41 12z m-436 -34 c6 -24 4 -25 -24 -21 -35 5 -38 13 -14 42 19 22 29 17 38
-21z m565 -14 c-7 -9 -15 -13 -18 -10 -3 2 1 11 8 20 7 9 15 13 18 10 3 -2 -1
-11 -8 -20z m50 -12 c0 -7 -9 -13 -20 -13 -23 0 -24 3 -8 30 13 20 28 10 28
-17z m293 -70 c8 -16 18 -38 21 -51 7 -21 6 -21 -18 -11 -21 10 -26 19 -26 51
0 45 5 47 23 11z"/>
</g>
</svg>
